<?xml version="1.0" standalone="no"?>
<!DOCTYPE svg PUBLIC "-//W3C//DTD SVG 20010904//EN"
 "http://www.w3.org/TR/2001/REC-SVG-20010904/DTD/svg10.dtd">
<svg version="1.0" xmlns="http://www.w3.org/2000/svg"
 width="204.000000pt" height="204.000000pt" viewBox="0 0 204.000000 204.000000"
 preserveAspectRatio="xMidYMid meet">

<g transform="translate(0.000000,204.000000) scale(0.100000,-0.100000)"
fill="#000000" stroke="none">
<path d="M1167 1712 c-36 -48 -72 -120 -64 -129 3 -2 10 10 16 28 6 17 26 52
44 78 39 54 49 71 45 71 -2 0 -20 -22 -41 -48z"/>
<path d="M903 1680 c14 -19 32 -50 42 -68 9 -19 19 -32 21 -29 8 8 -21 58 -56
97 l-31 35 24 -35z"/>
<path d="M226 1540 c-23 -58 -20 -119 9 -184 31 -71 31 -110 0 -161 -13 -22
-25 -45 -25 -51 0 -7 18 -19 41 -28 36 -15 40 -20 35 -41 -5 -18 -1 -27 14
-35 15 -8 19 -17 14 -35 -5 -21 -2 -25 14 -25 16 0 21 -7 24 -32 4 -43 39 -50
77 -15 106 99 283 163 464 168 89 3 89 6 5 84 -207 194 -400 326 -552 378 -81
28 -101 24 -120 -23z"/>
<path d="M1715 1561 c-171 -61 -343 -179 -537 -367 l-96 -94 72 0 c173 0 341
-55 457 -152 66 -54 109 -50 109 12 0 10 9 20 21 23 16 4 19 11 14 26 -4 15
-1 23 10 27 11 5 15 16 13 37 -3 26 1 31 27 40 55 18 58 25 30 73 -31 53 -32
110 -4 165 31 62 35 127 11 182 -24 54 -42 58 -127 28z"/>
<path d="M1003 1554 c-5 -12 -7 -13 -14 -3 -11 18 -55 -23 -62 -57 -4 -21 -1
-24 25 -24 33 0 35 -24 2 -26 -36 -2 -39 -6 -10 -13 38 -8 47 -31 12 -31 -13
0 -28 -4 -31 -10 -4 -6 7 -10 24 -10 21 0 31 -5 31 -15 0 -10 -10 -15 -31 -15
-18 0 -28 -4 -24 -10 4 -6 12 -10 18 -9 24 3 37 -1 37 -11 0 -5 -10 -10 -23
-10 -33 0 -37 -7 -25 -40 5 -17 22 -35 39 -42 33 -15 39 -33 8 -25 -15 4 -19
2 -15 -8 18 -49 25 -114 31 -297 l7 -208 29 0 29 0 0 193 c0 130 5 211 14 252
8 33 13 61 11 63 -1 2 -12 4 -23 5 -25 2 -18 17 8 17 22 0 60 45 60 72 0 14
-6 18 -22 16 -15 -2 -23 2 -23 12 0 9 9 15 23 14 12 -1 22 3 22 7 0 5 -11 9
-25 9 -16 0 -25 6 -25 15 0 9 9 15 25 15 14 0 25 5 25 10 0 6 -11 10 -25 10
-16 0 -25 6 -25 15 0 9 9 15 25 15 14 0 25 4 25 8 0 5 -10 8 -21 8 -12 -1 -24
5 -26 12 -3 7 5 12 21 12 35 0 35 32 0 67 -21 21 -28 23 -35 12 -7 -11 -9 -11
-9 4 0 22 -48 24 -57 1z m23 -54 c0 -12 -4 -16 -9 -11 -5 5 -6 14 -3 20 10 15
12 14 12 -9z m11 -446 c-9 -9 -28 6 -21 18 4 6 10 6 17 -1 6 -6 8 -13 4 -17z"/>
<path d="M872 1075 c-116 -26 -205 -92 -253 -192 -26 -52 -31 -69 -23 -91 17
-48 37 -38 74 39 46 95 133 185 220 227 73 35 71 36 -18 17z"/>
<path d="M914 1048 c-27 -18 -64 -55 -82 -82 -28 -43 -32 -57 -30 -100 3 -49
4 -51 33 -51 30 0 30 1 37 66 9 82 28 127 69 167 42 41 34 40 -27 0z m-60
-187 c9 -14 -4 -41 -19 -41 -18 0 -28 17 -21 35 6 17 32 20 40 6z"/>
<path d="M1175 1049 c82 -44 162 -128 209 -222 22 -43 44 -76 50 -74 6 2 15
15 20 30 14 38 -8 99 -57 160 -49 60 -162 123 -237 132 l-45 6 60 -32z"/>
<path d="M1114 1045 c39 -36 66 -102 66 -162 0 -71 30 -102 64 -67 45 45 -6
160 -99 224 -53 37 -67 39 -31 5z m124 -203 c3 -17 -2 -22 -17 -22 -14 0 -21
6 -21 18 0 38 33 41 38 4z"/>
<path d="M377 653 c-13 -12 -7 -23 13 -23 11 0 20 7 20 15 0 15 -21 21 -33 8z"/>
<path d="M539 656 c-2 -2 -3 -43 -1 -90 3 -66 7 -86 18 -86 11 0 14 19 14 90
0 68 -3 90 -13 90 -8 0 -16 -2 -18 -4z"/>
<path d="M1672 573 c3 -74 6 -88 21 -91 15 -3 17 6 17 87 0 85 -1 91 -21 91
-19 0 -20 -5 -17 -87z"/>
<path d="M1740 569 c0 -80 2 -90 17 -87 9 2 20 14 23 27 l6 25 20 -28 c12 -17
27 -27 38 -25 15 4 14 8 -8 38 l-25 34 20 26 c20 24 20 26 3 30 -10 2 -26 -6
-35 -18 -21 -26 -28 -18 -25 32 1 29 -2 37 -16 37 -16 0 -18 -11 -18 -91z"/>
<path d="M227 632 c-25 -28 -23 -106 4 -133 17 -17 29 -20 61 -16 22 3 41 7
43 9 2 1 5 19 7 38 3 33 1 35 -29 38 -19 2 -33 -1 -33 -7 0 -6 7 -11 16 -11
22 0 13 -34 -10 -38 -40 -8 -63 70 -30 102 19 20 29 20 48 0 9 -8 23 -14 31
-12 14 3 14 6 0 26 -21 28 -84 31 -108 4z"/>
<path d="M660 565 c0 -78 2 -85 20 -85 15 0 20 7 20 29 0 25 5 30 33 36 42 9
57 22 57 51 0 37 -26 54 -81 54 l-49 0 0 -85z m84 52 c23 -17 11 -47 -20 -47
-20 0 -24 5 -24 30 0 32 15 38 44 17z"/>
<path d="M1400 640 c0 -5 11 -10 25 -10 24 0 25 -2 25 -75 0 -68 2 -75 20 -75
17 0 19 8 22 73 3 66 5 72 26 75 50 7 18 22 -48 22 -40 0 -70 -4 -70 -10z"/>
<path d="M374 596 c-3 -7 -4 -35 -2 -62 2 -37 7 -50 21 -52 15 -3 17 5 17 62
0 53 -3 66 -15 66 -9 0 -18 -6 -21 -14z"/>
<path d="M440 543 c0 -56 2 -64 18 -61 12 2 18 15 20 46 2 26 9 45 18 49 27
10 14 29 -21 30 l-35 1 0 -65z"/>
<path d="M835 596 c-13 -9 -19 -26 -19 -51 0 -61 66 -90 98 -43 45 64 -18 139
-79 94z m60 -35 c8 -26 -5 -53 -24 -49 -10 2 -17 15 -19 36 -3 26 0 32 17 32
11 0 22 -8 26 -19z"/>
<path d="M950 596 c0 -8 5 -37 12 -66 14 -59 37 -65 52 -12 12 42 22 41 30 -3
9 -47 33 -45 45 3 18 74 19 82 9 88 -13 8 -28 -15 -28 -44 0 -32 -16 -19 -24
19 -8 39 -27 34 -40 -12 l-10 -34 -10 38 c-9 35 -36 53 -36 23z"/>
<path d="M1146 594 c-35 -34 -9 -114 36 -114 26 0 48 11 48 24 0 8 -11 11 -30
8 -23 -3 -30 0 -30 12 0 12 9 16 35 16 28 0 35 4 35 19 0 27 -26 51 -55 51
-13 0 -31 -7 -39 -16z m62 -26 c-6 -17 -38 -19 -38 -2 0 8 9 14 21 14 11 0 19
-5 17 -12z"/>
<path d="M1260 544 c0 -57 2 -64 20 -64 17 0 20 7 20 46 0 37 4 47 20 51 35 9
22 28 -20 29 l-40 1 0 -63z"/>
<path d="M1552 598 c-7 -7 -12 -16 -12 -20 0 -12 38 -10 45 2 4 6 11 8 16 5
17 -11 9 -21 -23 -30 -24 -7 -34 -17 -36 -34 -5 -30 11 -39 63 -39 l42 0 2 48
c0 32 -5 54 -15 64 -18 19 -65 21 -82 4z m58 -73 c0 -8 -6 -15 -14 -15 -17 0
-28 14 -19 24 12 12 33 6 33 -9z"/>
</g>
</svg>
